<?xml version="1.0" encoding="UTF-8"?>
<!-- Created with Inkscape (http://www.inkscape.org/) -->
<svg width="512" height="512" version="1.1" viewBox="0 0 512 512" xmlns="http://www.w3.org/2000/svg">
 <path d="m18.561 290.41h24.349v-69.108l-24.994 5.1563v-18.763l24.85-5.1563h26.211v87.871h24.349v19.05h-74.766zm102.05 0h24.349v-69.108l-24.994 5.1563v-18.763l24.85-5.1563h26.211v87.871h24.349v19.05h-74.766zm117.45-21.986-28.932-39.173h27.142l16.4 23.776 16.615-23.776h27.142l-28.932 39.03 30.365 41.178h-27.142l-18.047-25.352-17.832 25.352h-27.142zm79.206 21.986h24.349v-69.108l-24.994 5.1563v-18.763l24.85-5.1563h26.211v87.871h24.349v19.05h-74.766zm102.05 0h24.349v-69.108l-24.994 5.1563v-18.763l24.85-5.1563h26.211v87.871h24.349v19.05h-74.766z" stroke="#000" aria-label="11x11"/>
</svg>
