<?xml version="1.0" encoding="UTF-8"?>
<!-- Created with Inkscape (http://www.inkscape.org/) -->
<svg width="512" height="512" version="1.1" viewBox="0 0 512 512" xmlns="http://www.w3.org/2000/svg">
 <path d="m47.395 171.38v93.406c8.0061-3.3359 15.495-5.7831 22.463-7.3398 6.9683-1.6309 13.529-2.4453 19.682-2.4453 10.378 0 18.532 2.5196 24.463 7.5606 6.0046 5.0409 9.0078 11.934 9.0078 20.682 0 8.6733-3.0032 15.569-9.0078 20.684-5.9305 5.0409-14.085 7.5606-24.463 7.5606-7.1907 0-14.863-1.296-23.018-3.8906-8.0803-2.5946-16.644-6.4866-25.688-11.676v33.691c9.1181 3.7066 18.275 6.4494 27.467 8.2285 9.2664 1.8533 18.607 2.7812 28.021 2.7812 21.794 0 38.807-5.0784 51.039-15.234 12.306-10.156 18.459-24.205 18.459-42.145 0-18.088-5.6344-32.172-16.902-42.254-11.268-10.156-27.02-15.234-47.258-15.234-3.5583 0-7.0059 0.26037-10.342 0.77929-3.2618 0.44479-6.5234 1.1124-9.7852 2.002v-25.688h72.277v-31.469zm305.35 0v93.406c8.0062-3.3359 15.495-5.7831 22.463-7.3398 6.9683-1.6309 13.529-2.4453 19.682-2.4453 10.378 0 18.532 2.5196 24.463 7.5606 6.0046 5.0409 9.0078 11.934 9.0078 20.682 0 8.6733-3.0032 15.569-9.0078 20.684-5.9305 5.0409-14.085 7.5606-24.463 7.5606-7.1907 0-14.863-1.296-23.018-3.8906-8.0803-2.5946-16.644-6.4866-25.688-11.676v33.691c9.1181 3.7066 18.275 6.4494 27.467 8.2285 9.2664 1.8533 18.607 2.7812 28.021 2.7812 21.794 0 38.807-5.0784 51.039-15.234 12.306-10.156 18.459-24.205 18.459-42.145 0-18.088-5.6344-32.172-16.902-42.254-11.268-10.156-27.02-15.234-47.258-15.234-3.5583 0-7.0059 0.26037-10.342 0.77929-3.2618 0.44479-6.5234 1.1124-9.7852 2.002v-25.688h72.277v-31.469zm-165.35 41.477 44.922 60.824-47.146 63.717h42.143l27.689-39.363 28.021 39.363h42.143l-47.146-63.939 44.922-60.602h-42.143l-25.797 36.918-25.465-36.918z" stroke="#000" stroke-width="1.1861"/>
</svg>
